<!-- public/assets/logos/logo-symbol-orange.svg -->
<svg xmlns="http://www.w3.org/2000/svg" xmlns:xlink="http://www.w3.org/1999/xlink" width="343" height="403">
	<defs>
		<linearGradient id="gradient_0" gradientUnits="userSpaceOnUse" x1="115.48483" y1="101.85941" x2="187.62126" y2="15.694501">
			<stop offset="0" stop-color="#FE8902"/>
			<stop offset="1" stop-color="#FFA203"/>
		</linearGradient>
	</defs>
	<path fill="url(#gradient_0)" d="M144.458 2.54631C145.277 2.22535 146.099 1.93672 146.986 1.88664C148.882 1.77945 150.939 2.16141 152.846 2.2812C155.262 2.43291 157.652 2.3875 160.066 2.65761C161.865 2.85891 163.769 3.32477 165.573 3.28738C165.895 3.31456 166.216 3.36066 166.525 3.45549C169.201 4.27633 172.126 6.25789 174.635 7.54491C177.769 9.15306 181.305 10.5644 184.247 12.4783C189.508 15.8996 196.009 24.8019 199.02 30.223C203.317 37.9582 206.095 46.7907 206.082 55.7035C206.078 58.3441 205.712 61.0077 205.575 63.6467C205.383 67.3484 205.376 71.2054 204.322 74.79C203.509 77.558 201.716 80.2536 200.387 82.8154C198.369 86.7035 196.73 90.5677 194.059 94.0946C193.199 95.2303 191.814 95.8916 190.775 96.8588L184.334 102.942C183.292 103.935 182.219 105.187 181.042 106.009C180.209 106.59 179.093 106.896 178.189 107.386C176.725 108.181 175.369 109.171 173.902 109.969C169.079 112.594 160.404 115.461 154.928 115.78C153.055 115.889 151.104 115.637 149.223 115.591C147.461 115.547 145.595 115.607 143.854 115.36C140.606 114.9 134.85 113.347 131.613 112.371C127.941 111.265 118.61 105.337 115.774 102.666C113.498 100.523 111.643 98.0395 109.568 95.7224C107.875 93.8329 105.958 92.016 104.759 89.7547C103.858 88.0551 103.178 86.1591 102.422 84.3879C99.7384 78.1036 98.7216 74.5548 98.0076 67.7761C97.8859 66.6208 97.4944 65.5133 97.3669 64.3656C96.8312 59.5444 97.724 53.831 98.6056 49.1133C99.0111 46.9432 99.3191 44.6437 99.9845 42.5375C101.516 37.6895 107.317 26.0845 110.606 22.2659C112.288 20.3133 114.501 18.9388 116.211 17.0685C117.291 15.8871 117.877 14.367 119.155 13.3456C121.983 11.0853 128.032 8.00708 131.417 6.60358C134.781 5.2086 141.893 3.95457 144.242 2.66734L144.458 2.54631Z"/>
	<defs>
		<linearGradient id="gradient_1" gradientUnits="userSpaceOnUse" x1="57.975021" y1="385.38693" x2="273.83905" y2="18.072439">
			<stop offset="0" stop-color="#FA3403"/>
			<stop offset="1" stop-color="#FFAD02"/>
		</linearGradient>
	</defs>
	<path fill="url(#gradient_1)" d="M154.788 401.781L154.552 401.848C149.592 400.522 144.228 401.229 139.144 400.881C135.507 400.632 131.951 399.78 128.316 399.542C124.97 399.323 121.573 399.733 118.256 399.395C115.824 399.147 113.454 398.453 111.017 398.257C108.936 398.089 106.842 398.126 104.759 397.98C101.404 397.745 98.0593 397.342 94.7029 397.146C84.1736 396.53 72.765 396.158 64.1214 389.255C56.1185 382.864 52.3785 375.312 51.2687 365.18C50.2375 355.765 53.1514 350.579 57.1211 342.431C58.0856 340.452 58.8578 338.096 60.0128 336.253C60.822 334.961 62.318 334.083 63.2133 332.785C64.4142 331.043 65.2719 328.939 66.6174 327.319C67.3682 326.415 68.5192 325.921 69.2624 325.008C71.1237 322.722 72.532 320.054 74.4109 317.766C75.5502 316.379 77.1584 315.36 78.2326 313.953C79.1502 312.751 79.654 311.156 80.4349 309.852C81.2605 308.474 82.3579 307.256 83.2042 305.885C84.1167 304.406 84.8047 302.803 85.6933 301.314C86.724 299.587 88.0734 298.069 89.1358 296.362C91.0385 293.305 93.0147 289.165 94.463 285.85C95.1679 284.236 95.0574 282.33 95.7586 280.706C96.4483 279.108 97.7136 277.803 98.3584 276.165C99.0395 274.436 99.3838 272.404 99.8284 270.595C102.348 260.344 102.824 251.948 103.057 241.494C103.15 237.327 103.413 233.072 103.248 228.914C102.954 221.51 101.71 214.241 100.487 206.956C99.9485 203.746 99.6979 200.496 98.9312 197.319C98.3483 194.904 97.2765 192.527 96.4542 190.181C94.7104 185.204 91.0781 176.761 88.1706 172.291C86.995 170.483 85.4577 168.765 84.1047 167.081C81.4991 163.84 78.8153 160.541 75.9413 157.531C73.1513 154.61 70.1479 151.899 67.2919 149.045C65.189 146.943 63.3383 144.596 61.1743 142.553C59.0544 140.552 56.7327 138.768 54.6429 136.732C52.1324 134.285 50.0656 131.416 47.6262 128.901C46.1844 127.414 44.4454 126.245 43.0004 124.756C41.5728 123.286 40.4256 121.531 39.0291 120.018C36.376 117.144 33.5852 114.389 31.009 111.446C28.6357 108.734 26.5874 105.803 24.346 102.99C21.3793 99.268 18.4016 95.7731 15.589 91.9128C9.85126 84.0378 3.38517 76.0787 2.15544 66.048C1.10802 57.5044 3.2799 49.1889 8.61914 42.4342C12.4845 37.5441 19.4222 34.2403 25.5329 33.5505C31.1286 32.9188 38.5219 35.462 42.4398 39.4505C44.7468 41.7991 47.5406 44.9086 49.1831 47.7424C50.5046 50.0225 51.2621 52.7365 52.2828 55.1712C53.6964 58.543 55.5872 62.2246 57.4353 65.3857C58.5894 67.3598 60.0513 69.1693 61.2726 71.1073C63.203 74.1709 64.9018 77.3896 67.0589 80.3056C68.4769 82.2224 70.1608 83.9187 71.5935 85.8195C75.4963 90.9972 79.4143 96.4319 83.9922 101.046C86.6218 103.696 89.3906 106.51 92.2442 108.91C93.7899 110.21 95.5538 111.214 97.0833 112.553C99.259 114.457 101.033 116.896 103.316 118.657C106.187 120.872 109.829 121.775 112.861 123.681C114.046 124.426 114.801 125.644 115.909 126.451C117.91 127.91 122.786 130.702 125.233 131.292C126.408 131.576 127.676 131.338 128.827 131.747C130.871 132.474 132.628 134.029 134.66 134.75C135.978 135.217 137.453 134.993 138.775 135.396C140.333 135.871 141.611 137.134 143.203 137.558C149.673 139.284 158.921 137.892 165.425 136.812C167.858 136.408 170.17 135.513 172.534 134.84C174.945 134.153 177.745 133.761 180.006 132.66C181.318 132.022 182.403 130.818 183.647 130.039C184.99 129.199 186.423 128.515 187.758 127.649Q193.817 123.768 199.35 119.167Q204.882 114.566 209.802 109.315C212.328 106.586 214.596 103.63 217.045 100.834C220.305 97.1129 224.004 93.2723 226.816 89.2062C228.448 86.8464 229.317 84.0233 230.865 81.6134C231.533 80.5748 232.48 79.7282 233.241 78.7587C235.235 76.2207 237.592 73.1539 239.011 70.2375C240.471 67.2377 241.039 63.999 242.347 60.9656C244.075 56.9599 246.618 53.2067 248.184 49.1636C248.906 47.301 249.253 45.2924 249.908 43.4035C251.522 38.7516 254.094 33.0372 256.992 29.0626C259.511 25.6078 266.239 22.8877 270.35 22.415C273.698 22.0299 277.05 22.3382 280.417 21.8538C281.965 22.594 283.615 23.2291 285.041 24.1947C290.797 28.0941 295.592 34.7606 296.832 41.6303C297.243 43.9021 297.153 46.319 297.239 48.6242C297.299 50.248 297.595 51.9014 297.567 53.5174C297.496 57.5641 295.028 61.1203 293.457 64.7157C292.66 66.5398 292.183 68.5738 291.257 70.3295C290.528 71.7129 289.314 72.7708 288.607 74.1787C286.322 78.7279 284.495 83.5808 281.896 87.9699C280.702 89.9856 279.078 91.847 277.673 93.7311C275.42 96.7515 273.229 99.8478 271.047 102.92C270.07 104.297 269.71 105.985 268.645 107.308C260.889 116.941 251.844 125.506 243.406 134.528C241.334 136.744 239.66 139.319 237.603 141.551C235.693 143.623 233.799 145.739 231.816 147.741C230.159 149.415 228.304 151.038 226.822 152.865C225.196 154.87 223.808 157.273 222.351 159.412C220.546 162.061 218.858 165.24 217.866 168.296C217.282 170.097 216.889 172.015 216.189 173.77C215.162 176.345 213.409 178.618 212.365 181.214C211.044 184.499 208 199.104 207.866 202.588C207.804 204.201 208.162 205.716 208.461 207.29C207.967 208.486 207.527 209.706 207.074 210.918C207.423 212.646 207.985 214.294 208.128 216.065C208.299 218.183 208.066 220.323 208.379 222.432C209.886 232.599 211.922 242.564 215.386 252.262C215.886 253.664 216.259 255.252 216.866 256.593C217.388 257.746 218.145 258.779 218.673 259.934C219.277 261.255 218.79 262.764 219.459 263.997C220.94 266.727 222.68 269.182 224.261 271.839C226.913 276.298 229.437 280.918 232.441 285.16C234.172 287.606 236.208 289.832 238 292.234C239.879 294.753 241.536 297.415 243.595 299.801C245.348 301.833 247.578 303.383 249.444 305.304C251.998 307.934 254.204 310.872 256.795 313.491L257.017 313.49C257.141 313.491 257.264 313.497 257.388 313.491C260.005 313.356 262.262 314.88 264.909 314.537C268.922 314.018 272.291 311.919 275.964 310.46C279.696 308.978 283.561 307.786 287.255 306.23L303.327 299.479C305.016 298.777 306.63 297.883 308.348 297.249C309.745 296.734 311.272 296.484 312.729 296.196C317.4 295.275 321.131 295.03 325.606 297.081C330.931 299.521 334.474 303.354 337.437 308.296C338.168 309.515 339.018 310.869 339.414 312.237C340.044 314.411 339.945 316.92 340.787 319.005C341.182 319.984 341.777 320.193 342.694 320.597L343 320.73L343 321.217C340.018 323.649 340.981 328.829 340.065 332.211C339.341 334.883 337.738 337.73 336.053 339.897C335.011 341.239 333.888 342.778 332.626 343.916C328.664 347.486 320.993 350.444 316.102 352.527C312.94 353.873 309.697 355.613 306.465 356.725C305.43 357.081 304.283 356.842 303.229 357.182C302.171 357.522 301.712 358.686 300.706 359.085C299.343 359.625 297.749 359.506 296.37 360.038C291.569 361.893 286.969 364.274 282.113 366.02C280.623 366.555 278.99 366.607 277.492 367.135C275.669 367.779 273.965 368.817 272.174 369.556C268.831 370.935 263.455 372.524 260.469 374.294C260.022 374.559 259.704 374.714 259.196 374.825C257.897 375.58 251.165 375.591 249.424 375.449C247.143 375.262 244.72 375.135 242.492 374.627C238.399 373.694 233.399 371.077 229.842 368.805C225.145 365.805 221.279 361.226 217.328 357.343C212.92 353.01 208.222 348.894 203.976 344.404L190.045 329.627C187.237 326.606 184.525 323.396 181.546 320.548C179.925 318.998 178.132 317.638 176.44 316.167C174.604 314.569 172.791 312.757 170.702 311.489C168.697 310.273 165.645 309.695 163.343 309.265C161.248 308.873 159.427 309.204 157.346 309.544C155.618 309.827 153.759 310.034 152.101 310.608C147.865 312.074 142.752 316.253 139.338 319.173C137.635 320.63 136.496 322.261 134.581 323.549C132.801 327.946 129.34 330.894 126.344 334.441C124.905 336.144 122.535 339.295 122.737 341.655C124.543 345.425 138.008 345.421 141.809 345.654C144.025 345.791 146.214 346.272 148.428 346.385C153.252 346.631 158.182 346.283 162.961 347.242C164.274 347.506 168.503 349.833 169.959 350.609C175.485 353.556 179.736 359.688 181.461 365.638C182.697 369.904 181.84 373.998 181.613 378.277C181.554 379.387 181.824 380.486 181.546 381.579C181.026 383.629 179.754 385.909 178.732 387.762C177.517 389.964 175.904 391.376 174.144 393.119C173.104 394.149 172.262 395.397 171.194 396.386C169.017 398.403 165.215 399.589 162.404 400.415C161.647 400.425 160.954 399.992 160.188 400.062C158.355 400.23 156.696 401.563 154.788 401.781ZM151.99 169.354C141.078 170.233 131.395 174.796 124.267 183.21Q123.655 183.942 123.079 184.703Q122.504 185.463 121.966 186.251Q121.428 187.039 120.929 187.852Q120.43 188.666 119.971 189.502Q119.512 190.338 119.095 191.196Q118.677 192.054 118.302 192.931Q117.927 193.808 117.594 194.703Q117.262 195.597 116.974 196.506Q116.686 197.416 116.442 198.338Q116.198 199.26 116 200.194Q115.801 201.127 115.648 202.068Q115.495 203.01 115.389 203.958Q115.282 204.906 115.221 205.858Q115.16 206.81 115.146 207.764Q115.132 208.718 115.164 209.672Q115.196 210.625 115.275 211.576C116.182 221.587 120.788 231.258 128.575 237.743C136.352 244.219 146.329 248.116 156.562 247.255C167.859 246.464 177.154 240.772 184.483 232.318C191.082 224.704 193.659 214.578 192.921 204.664C192.175 194.654 187.071 185.119 179.499 178.609C172.082 172.232 162.012 168.602 152.186 169.335C152.12 169.34 152.055 169.348 151.99 169.354Z"/>
	<defs>
		<linearGradient id="gradient_2" gradientUnits="userSpaceOnUse" x1="134.32782" y1="221.49234" x2="178.29007" y2="189.82056">
			<stop offset="0" stop-color="#FC6002"/>
			<stop offset="1" stop-color="#FF8202"/>
		</linearGradient>
	</defs>
	<path fill="url(#gradient_2)" d="M168.591 189.069C171.544 188.842 174.542 188.945 177.498 189.048C178.755 190.009 179.884 190.999 180.987 192.132C181.033 193.861 181.117 195.618 181.07 197.346C181.038 198.527 180.803 199.811 180.15 200.815C177.605 204.729 173.358 207.997 170.196 211.441C166.069 215.937 162.332 220.742 157.891 224.97C154.901 227.816 153.274 229.447 148.908 229.315C144.611 229.185 141.49 227.652 138.583 224.517C135.624 220.866 131.676 217.072 128.037 214.099C127.855 211.183 127.936 208.255 128.037 205.338C130.347 203.386 132.51 202.438 135.272 201.306C139.299 201.826 141.06 203.562 143.845 206.366C144.494 207.02 145.138 207.755 145.923 208.249C146.158 208.398 146.875 208.75 147.159 208.715C149.404 208.43 162.736 192.34 166.287 189.938C166.989 189.463 167.779 189.267 168.591 189.069Z"/>
</svg>

