<!-- public/assets/logos/logo-symbol-white.svg -->
<svg xmlns="http://www.w3.org/2000/svg" xmlns:xlink="http://www.w3.org/1999/xlink" width="343" height="403">
	<defs>
		<linearGradient id="gradient_0" gradientUnits="userSpaceOnUse" x1="115.48579" y1="101.86024" x2="187.62042" y2="15.693701">
			<stop offset="0" stop-color="#FFFCE1"/>
			<stop offset="1" stop-color="#FFFFE2"/>
		</linearGradient>
	</defs>
	<path fill="url(#gradient_0)" d="M144.708 0L144.89 0L151.087 0L162.696 0L162.927 0.452983L163.396 0.497971L163.513 0.751135C162.949 1.42545 162.958 1.4399 162.09 1.56232C163.134 2.69286 165.684 2.06884 165.855 3.29167C165.906 3.30046 165.958 3.30781 166.009 3.31805C168.209 3.75817 170.95 5.68261 172.956 6.71417C176.939 8.76301 181.493 10.423 185.07 13.1412C186.643 14.3362 188.062 15.8908 189.467 17.2803C191.299 19.0921 193.036 20.8717 194.485 23.0215C201.147 32.9089 205.854 43.177 206.075 55.3232C206.116 57.5695 205.812 59.8259 205.687 62.0672C205.478 65.7969 205.424 69.4547 204.69 73.1323C203.945 76.8637 196.812 90.5671 194.414 93.4566C191.554 96.901 187.689 99.8933 184.296 102.797C183.222 103.715 182.437 105.059 181.244 105.81C174.096 110.305 168.475 112.962 160.179 114.77C158.497 115.136 156.756 115.632 155.037 115.74C153.004 115.867 150.868 115.636 148.828 115.559C146.625 115.475 144.48 115.576 142.315 115.065C137.807 114 132.787 113.074 128.544 111.237C126.158 110.203 124.354 108.616 122.26 107.118C120.467 105.834 118.488 104.877 116.754 103.492C113.745 101.09 107.077 93.5881 105.114 90.3261C104.05 88.5578 103.338 86.4736 102.509 84.5802C101.432 82.1224 100.339 79.6813 99.5746 77.1038C96.3545 66.2464 96.9104 54.0731 99.774 43.211C100.603 40.065 102.289 37.0257 103.736 34.1196C105.795 29.9842 107.892 25.4764 110.95 21.9878C112.336 20.4068 113.986 19.059 115.45 17.5509C116.741 16.2208 117.84 14.678 119.239 13.4574C122.035 11.0179 128.14 7.90784 131.664 6.49501C134.468 5.37138 142.452 3.71261 144.046 2.73898C144.097 2.70827 144.145 2.67509 144.195 2.64314L144.36 1.96865C143.935 1.63387 141.688 1.79812 141.024 1.77919L140.962 1.2486L140.303 1.67547L140.597 1.71207L140.332 1.22461L140.734 1.56912C140.988 1.5442 143.354 1.36473 143.41 1.3064C143.556 1.15485 143.412 0.845898 143.556 0.692502C143.663 0.578866 144.425 0.265698 144.708 0ZM144.708 0C144.425 0.265698 143.663 0.578866 143.556 0.692502C143.412 0.845898 143.556 1.15485 143.41 1.3064C143.354 1.36473 140.988 1.5442 140.734 1.56912L140.332 1.22461L140.597 1.71207L140.303 1.67547L140.962 1.2486L141.024 1.77919C141.688 1.79812 143.935 1.63387 144.36 1.96865L144.195 2.64314C144.991 2.3259 145.805 2.00842 146.665 1.92167C148.636 1.72272 150.869 2.15492 152.857 2.28296C155.27 2.4384 157.656 2.38727 160.067 2.66064C161.963 2.87554 163.95 3.34303 165.855 3.29167C165.684 2.06884 163.134 2.69286 162.09 1.56232C162.958 1.4399 162.949 1.42545 163.513 0.751135L163.396 0.497971L162.927 0.452983L162.696 0L151.087 0L144.89 0L144.708 0Z"/>
	<defs>
		<linearGradient id="gradient_1" gradientUnits="userSpaceOnUse" x1="57.973072" y1="385.38568" x2="273.84091" y2="18.073395">
			<stop offset="0" stop-color="#FFF2E2"/>
			<stop offset="1" stop-color="#FEFFE1"/>
		</linearGradient>
	</defs>
	<path fill="url(#gradient_1)" d="M154.787 401.779L154.493 401.857C149.633 400.245 143.557 401.193 138.456 400.871C135.163 400.663 131.992 399.698 128.708 399.5C124.985 399.276 121.005 399.912 117.344 399.464C115.654 399.258 114.182 398.511 112.405 398.372L94.914 397.148C84.0325 396.48 72.4242 396.175 63.5958 388.838C55.9974 382.523 52.0419 374.447 51.1961 364.623C50.4025 355.407 53.1535 350.867 56.9186 342.842C57.9384 340.669 58.8578 338.006 60.1956 336.042C61.236 334.515 62.8522 333.396 63.9169 331.883C64.9222 330.455 65.4636 328.685 66.5594 327.324C67.2527 326.463 68.3741 325.997 69.1203 325.181C71.0353 323.086 72.315 320.304 74.1343 318.09C75.2513 316.73 76.8942 315.718 77.8958 314.306C78.8347 312.982 79.5425 311.46 80.3985 310.078C81.4675 308.352 82.7716 306.785 83.7427 304.994C84.6201 303.375 85.298 301.317 86.3756 299.85C86.8728 299.173 87.6599 298.772 88.1704 298.111C89.2811 296.674 93.9647 287.398 94.6274 285.411C95.0974 284.001 95.1288 282.445 95.6267 281.04C96.2786 279.2 97.8085 277.758 98.4637 275.885C101.678 266.694 102.753 254.095 102.989 244.38C103.113 239.269 103.45 234.014 103.247 228.915C102.954 221.541 101.737 214.283 100.5 207.031C99.9819 203.99 99.7395 200.917 99.0471 197.899C97.6161 191.663 94.3701 184.28 91.4214 178.592C90.2606 176.353 89.2186 173.83 87.7831 171.763C81.9698 163.39 74.6323 156.375 67.4612 149.226C65.3581 147.129 63.5055 144.787 61.36 142.73C59.3753 140.828 57.1839 139.149 55.2001 137.246C52.7218 134.869 50.6504 132.117 48.2675 129.654C46.6271 127.957 44.7483 126.503 43.1254 124.786C41.7197 123.298 40.4973 121.641 39.117 120.129C36.2646 117.005 33.2501 114.023 30.4712 110.831Q22.6724 101.845 15.758 92.1615C14.5686 90.5181 13.214 88.9978 12.0239 87.3566C7.7187 81.4199 3.3335 74.117 2.24199 66.7757C0.990486 58.3583 2.98407 49.9747 8.08033 43.1721C12.0921 37.8171 18.6079 34.4913 25.1697 33.5999C30.5789 32.865 38.1597 35.238 42.0323 39.025C44.3648 41.3059 47.2155 44.5053 48.8597 47.3055C50.3612 49.8627 51.2326 52.7038 52.3966 55.4178C53.8346 58.7708 55.7055 62.3965 57.5338 65.5581C58.6455 67.4805 60.0765 69.2284 61.2663 71.1076C63.2419 74.2277 64.9841 77.521 67.1748 80.5C68.5408 82.3577 70.2065 83.9726 71.591 85.8149C75.788 91.3999 80.1034 97.2907 85.0694 102.227C87.2093 104.355 89.5447 106.585 91.8874 108.489C93.3569 109.683 94.9499 110.715 96.3701 111.972C98.8643 114.181 101.008 116.901 103.674 118.9C106.395 120.942 109.839 121.927 112.767 123.624C114.01 124.345 114.866 125.604 116.025 126.458C118.009 127.92 122.474 130.527 124.834 131.181C126.02 131.51 127.358 131.293 128.513 131.722C130.514 132.466 132.355 133.634 134.35 134.397C135.759 134.935 137.255 135.168 138.682 135.638C140.381 136.198 141.98 137.172 143.711 137.61C150.083 139.221 157.932 137.924 164.331 136.991C167.077 136.59 177.161 133.877 179.629 132.721C181.511 131.84 183.314 130.431 185.087 129.325Q188.455 127.27 191.681 124.999Q194.906 122.728 197.976 120.25Q201.046 117.772 203.946 115.097Q206.846 112.423 209.565 109.564C212.002 106.956 214.204 104.121 216.569 101.446C220.115 97.4364 224.151 93.0445 227.19 88.6737C228.618 86.6212 229.285 84.0666 230.65 81.9748C233.223 78.0323 236.837 74.6444 238.946 70.3695C240.447 67.3287 241.019 64.0461 242.349 60.9658C244.077 56.9595 246.614 53.2046 248.185 49.1615C248.908 47.3011 249.249 45.2921 249.905 43.405C251.38 39.1584 254.431 32.3719 257.125 28.8493C259.625 25.5789 266.383 22.8662 270.346 22.4122C273.696 22.0284 277.049 22.3362 280.417 21.8538C282.056 22.6359 283.782 23.303 285.273 24.3531C291.013 28.3956 295.747 34.8945 296.877 41.8869C297.241 44.14 297.161 46.5199 297.245 48.8008C297.303 50.3675 297.594 51.9568 297.567 53.5175C297.496 57.5668 295.026 61.1136 293.458 64.7119C292.663 66.5358 292.192 68.5934 291.253 70.3397C290.515 71.714 289.314 72.7751 288.608 74.1788C286.306 78.7535 284.49 83.6786 281.839 88.0699C280.62 90.0887 278.985 91.9769 277.569 93.8743C275.351 96.8456 273.195 99.8947 271.049 102.918C270.136 104.204 269.796 105.817 268.844 107.059C261.372 116.815 251.548 125.613 243.232 134.73C241.453 136.68 239.929 138.867 238.207 140.869C236.093 143.327 233.796 145.752 231.508 148.052C229.775 149.794 227.728 151.525 226.317 153.532C223.219 157.936 220.063 162.455 218.143 167.52C217.349 169.614 216.989 171.902 216.113 173.955C215.017 176.524 213.286 178.79 212.282 181.423C211.014 184.747 208.006 199.125 207.868 202.58C207.804 204.194 208.173 205.734 208.451 207.315C207.953 208.501 207.522 209.718 207.075 210.924C207.424 212.651 207.989 214.298 208.13 216.07C208.304 218.251 208.069 220.444 208.407 222.617C210.197 234.111 212.543 245.434 216.756 256.322C217.269 257.649 218.191 258.802 218.754 260.116C219.298 261.387 218.822 262.808 219.475 264.028C220.938 266.76 222.689 269.194 224.265 271.845C226.948 276.359 229.503 281.052 232.565 285.33C234.268 287.71 236.251 289.886 238 292.233C239.879 294.752 241.536 297.415 243.595 299.801C245.349 301.833 247.578 303.383 249.444 305.304C251.996 307.933 254.207 310.868 256.792 313.49C259.625 313.34 262.099 314.889 264.841 314.555C268.822 314.069 271.907 312.02 275.516 310.57C279.17 309.102 283.01 308.059 286.634 306.537C290.818 304.781 294.809 302.542 298.987 300.82C300.333 300.265 301.826 300.396 303.141 299.857C304.556 299.277 305.702 298.088 307.168 297.567C313.153 295.438 320.242 294.419 326.11 297.31C331.875 300.149 337.537 306.222 339.478 312.495C340.115 314.553 339.993 316.835 340.725 318.853C341.116 319.93 341.707 320.159 342.694 320.601L343 320.737L343 321.215C340.022 323.646 340.979 328.831 340.065 332.211C339.342 334.882 337.738 337.731 336.054 339.897C335.013 341.236 333.89 342.778 332.629 343.912C328.65 347.49 321.005 350.439 316.101 352.527C312.941 353.872 309.701 355.611 306.472 356.725C305.436 357.082 304.284 356.832 303.234 357.176C302.184 357.521 301.712 358.68 300.711 359.08C299.347 359.626 297.752 359.508 296.372 360.041C291.667 361.856 287.146 364.148 282.41 365.911C280.891 366.476 279.268 366.574 277.727 367.056C275.821 367.653 274.024 368.792 272.173 369.556C268.828 370.936 263.457 372.524 260.469 374.294C260.022 374.559 259.703 374.714 259.194 374.825C257.871 375.599 251.101 375.59 249.299 375.44C247.022 375.251 244.595 375.121 242.374 374.6C238.324 373.649 233.368 371.061 229.843 368.804C225.22 365.845 221.356 361.344 217.483 357.496C213.121 353.16 208.471 349.079 204.21 344.645L189.712 329.269C187.014 326.36 184.402 323.278 181.535 320.54C179.931 319.009 178.163 317.66 176.491 316.207C174.573 314.539 172.674 312.624 170.469 311.354C168.555 310.252 165.725 309.743 163.555 309.308C161.426 308.881 159.645 309.171 157.528 309.511C155.668 309.81 153.687 310.028 151.914 310.674C147.533 312.272 142.837 316.166 139.328 319.186C137.633 320.645 136.489 322.264 134.581 323.549C132.123 329.715 122.893 335.906 122.735 341.519C123.167 342.52 124.214 342.868 125.151 343.278C130.8 345.75 135.696 345.137 141.572 345.551C143.926 345.716 146.251 346.356 148.602 346.46C153.277 346.668 158.02 346.266 162.664 347.159C164.121 347.439 168.141 349.664 169.675 350.452C175.283 353.335 179.59 359.473 181.425 365.426C182.725 369.642 181.887 373.895 181.644 378.16C181.578 379.327 181.827 380.496 181.516 381.645C180.965 383.683 179.727 385.937 178.711 387.795C177.632 389.768 176.261 391.078 174.723 392.666C170.525 397.002 168.217 398.71 162.432 400.426C161.679 400.366 160.886 400.015 160.133 400.08C158.348 400.232 156.663 401.557 154.787 401.779ZM151.967 169.355C141.066 170.236 131.387 174.805 124.267 183.21Q123.655 183.942 123.079 184.703Q122.504 185.464 121.966 186.251Q121.428 187.039 120.929 187.853Q120.43 188.666 119.972 189.502Q119.513 190.339 119.095 191.196Q118.678 192.054 118.302 192.931Q117.927 193.808 117.595 194.703Q117.263 195.597 116.975 196.507Q116.686 197.416 116.443 198.338Q116.199 199.261 116.001 200.194Q115.802 201.127 115.649 202.069Q115.496 203.01 115.389 203.958Q115.283 204.906 115.222 205.858Q115.161 206.81 115.147 207.764Q115.133 208.718 115.165 209.672Q115.197 210.625 115.276 211.576C116.182 221.588 120.79 231.255 128.576 237.743C136.343 244.215 146.337 248.121 156.562 247.256C167.864 246.459 177.147 240.775 184.481 232.317C191.083 224.702 193.66 214.581 192.921 204.663C192.174 194.652 187.074 185.12 179.499 178.609C172.045 172.201 162.036 168.637 152.171 169.336C152.103 169.341 152.035 169.349 151.967 169.355Z"/>
	<defs>
		<linearGradient id="gradient_2" gradientUnits="userSpaceOnUse" x1="134.34828" y1="221.4957" x2="178.24753" y2="189.76709">
			<stop offset="0" stop-color="#FFF7E1"/>
			<stop offset="1" stop-color="#FFFBE1"/>
		</linearGradient>
	</defs>
	<path fill="url(#gradient_2)" d="M168.586 189.071C171.54 188.84 174.541 188.944 177.498 189.048C178.754 190.009 179.884 191 180.987 192.133C181.034 193.901 181.157 195.745 181.064 197.509C181.003 198.67 180.778 199.859 180.129 200.843C177.543 204.765 173.375 207.981 170.197 211.442C165.92 216.1 162.062 221.118 157.397 225.435C154.385 228.221 152.922 229.502 148.624 229.304C144.441 229.11 141.411 227.571 138.583 224.516C135.614 220.863 131.678 217.082 128.037 214.099C127.839 211.164 127.903 208.174 128.061 205.238C130.36 203.415 132.575 202.407 135.272 201.306C139.299 201.827 141.061 203.559 143.845 206.366C144.494 207.02 145.137 207.755 145.922 208.249C146.155 208.396 146.879 208.754 147.159 208.717C149.426 208.417 162.694 192.359 166.287 189.937C166.988 189.465 167.776 189.268 168.586 189.071Z"/>
</svg>

